<svg xmlns="http://www.w3.org/2000/svg" width="71" height="15">
  <path fill="#fff" d="M8.63272 10.2326c-.00227.5342-.11672 1.0617-.33564 1.547-.21892.4853-.53724.9172-.93353 1.2666-.78816.7075-1.80174 1.0985-2.85179 1.1003-.86409.0117-1.70836-.2642-2.40475-.786-.68446-.534-1.197763-1.2635-1.474713-2.0957l-.097629-.262 1.228072-.5711.11818.3039c.20853.5794.56296 1.0926 1.02767 1.488.46646.3743 1.04565.5724 1.63914.5606.69811.0053 1.37281-.2564 1.89092-.7335.2545-.2356.45811-.5227.59789-.8429.13977-.3202.21264-.6666.21397-1.0171-.0006-.24928-.05801-.495-.16769-.71777-.10968-.22277-.26864-.4165-.46433-.5659-.44435-.34519-.92731-.63539-1.43874-.86451l-.19526-.1205-2.2095-1.18935c-.4342-.24669-.79453-.60902-1.0425-1.04827-.24797-.43926-.37427-.93895-.36541-1.4457-.00896-.45944.07184-.91609.23769-1.34337.16585-.42727.41343-.81662.72832-1.14536.66142-.64449 1.54664-.994985 2.46128-.974534.66256.004599 1.31251.18518 1.88578.523944.55026.33205 1.00558.80535 1.32056 1.37273l.12332.23053-1.02767.84879-.18499-.29865c-.22215-.38968-.52997-.72148-.89921-.96929-.39244-.2391-.84295-.36075-1.3-.35104-.26462-.00143-.52686.05101-.77134.15425-.24449.10324-.46631.25519-.65247.44696-.18615.19177-.3329.4195-.43164.66983-.09874.25034-.14748.51826-.14338.78805-.0004.23263.05233.46217.154.67042s.2495.38951.43178.52941c.41268.32432.86529.59207 1.34625.7964l.10276.05239 2.3431 1.24174c.48251.26682.88244.66565 1.15477 1.1516.27233.48596.40626 1.03976.38673 1.5991Zm5.04078-7.93773h3.1549V13.9945h1.3874V2.29487h3.1549V.927379h-7.7075l.0103 1.367491ZM41.4669.927379h-1.3874V13.9945h4.4704V12.627h-3.083V.927379Zm10.1431 0h-1.4079V13.9945h4.496V12.627h-3.083L51.61.927379ZM27.0178 7.5605h6.4384V6.19301h-6.4384V7.5605Zm0-5.23943h6.4384V.927379h-6.4384V2.32107Zm0 11.69963h6.4384V12.627h-6.4384v1.3937ZM64.5587 0l-5.57 13.9945h1.4541l4.1107-10.3269 4.1107 10.3269h1.4542L64.5587 0Z"/>
</svg>
