<svg xmlns="http://www.w3.org/2000/svg" width="96" height="23">
  <path d="M95.9077 9.98522c-.0628-.05975-.1453-.09339-.2312-.09431h-4.5834c-5.8475 0-11.4894.06288-18.0202.89069-.7091.0891-1.9578.241-2.6463.2934.107-.0817.2067-.1729.298-.2724.317-.3465.5555-.7596.6988-1.21033v-.03668c.0062-.04342.0183-.08574.036-.12575.0133-.03212.0236-.06545.0308-.09955l.0668-.27245c.0411-.20957.072-.38248.0874-.52394.0359-.39296.0565-.78591.0668-1.15791V6.79965c0-.28293 0-.34056-.0668-.40344-.0334-.03725-.0752-.06575-.1217-.08307-.0465-.01733-.0964-.02298-.1455-.01648-.1045.02842-.199.08657-.2723.16766l-.3135.29865c-.4663.46202-.9588.89588-1.4747 1.29938-.2466.18338-.5138.36676-.7708.52395-.7834.46716-1.6073.86001-2.4612 1.17363-2.012.75897-4.1009 1.28627-6.2277 1.57187-.1308.0204-.2597.0519-.3854.0943l.4727-.7493c.3392-.5239.7605-1.18932 1.074-1.71851.1747-.29864.2928-.52394.3751-.6916.0822-.16766.1541-.37724.0668-.46631-.0874-.08907-.2415 0-.2878.0262-1.322.9793-2.7269 1.83671-4.198 2.56212-.9866.4244-1.3874.3615-1.5415.2305-.37-.3039.0513-1.34654.2774-1.90716.0514-.13622.0977-.25149.1285-.34056.0308-.08907.0719-.20434 0-.27769-.0238-.01788-.0526-.02752-.0822-.02752-.0296 0-.0584.00964-.0822.02752-1.9748 1.05082-4.028 1.94081-6.1404 2.66161-.443.1502-.9052.2332-1.3719.2463-.1016.0082-.2037-.0068-.2988-.044-.0951-.0371-.1809-.0955-.251-.1708-.3237-.4244.2055-1.30466.632-2.01199.1439-.23577.2775-.45583.37-.64968.1849-.36677.1952-.47679.1438-.55539-.0138-.02134-.0331-.03846-.0557-.04953-.0226-.01107-.0477-.01568-.0727-.01334-1.0032.04143-1.9966.2176-2.9546.52395-.6087.21874-1.1926.50329-1.7419.84878-1.0636.62873-2.1684 1.2784-5.2668 1.4146-.5473.0229-1.0874-.1331-1.5415-.4453-.2333-.13414-.4267-.3301-.5596-.56715-.133-.23705-.2006-.50635-.1958-.77939.0964-.83523.3986-1.63197.8787-2.31582.1593-.27245.6217-.9693 1.3771-2.06958l1.8703.03668c.0452.00185.0903-.00555.1327-.02174.0424-.0162.0811-.04087.114-.07257.0327-.03282.0586-.07198.0763-.11517.0176-.04319.0266-.08954.0264-.13633.0001-.08803-.0339-.17253-.0944-.23527-.0606-.06274-.1429-.09867-.2293-.10005h-1.4079c.6886-.8645 1.2281-1.57183 1.6032-2.1534.0437-.06513.0724-.13948.0839-.21751.0116-.07802.0057-.157697-.0171-.233084-.016-.074766-.0489-.144655-.0963-.204005-.0473-.059351-.1077-.106494-.1763-.137616-.0685-.031122-.1433-.045347-.2183-.041522-.0749.003824-.1479.025592-.2131.063538-.4816.362653-.9017.803369-1.2435 1.304619l-1.1561 1.54039-3.2526-.06287c-.0399-.00039-.0796.00728-.1166.02257-.037.01528-.0707.03788-.0992.0665-.0298.02898-.0535.06397-.0694.10275-.0159.03878-.0238.08051-.0231.12254 0 .09637.0372.18887.1036.25751.0663.06863.1565.10788.251.10925l2.7644.05764c-.8196 1.23481-1.7766 2.36882-2.8518 3.37943-.8288.71581-1.7398 1.32632-2.713 1.81808-.6285.32189-1.288.57649-1.968.75968-.5534.1469-1.124.2157-1.6957.2044.1436-.1046.2761-.224.3957-.3563.3236-.37528.5653-.8164.7091-1.29415.0494-.1601.0906-.32274.1233-.48726.1126-.56469.1813-1.13757.2055-1.7133v-.20957c0-.20958.0309-.42964.0514-.63921V5.4112c.0181-.11629.0181-.23475 0-.35104-.0092-.0725-.0404-.14024-.0893-.19378-.0488-.05354-.1128-.0902-.183-.10487-.1645-.04715-.2672.11003-.3237.20434l-.0411.05239c-.0771.09955-.1593.1991-.2518.30389-.1696.19386-.3443.38248-.5396.57634-.3686.3759-.7617.72599-1.1766 1.04788-.2415.18862-.5139.37724-.8119.57634-.298.1991-.7194.46107-1.1407.70732-1.1449.60761-2.3509 1.08718-3.5969 1.43037-3.2266.99162-6.5647 1.55692-9.9324 1.68182-3.69352.0865-7.38866-.0675-11.062913-.461-.083705-.0058-.166267.0223-.229762.0782-.0634949.0559-.1027958.1351-.1093697.2204-.0056672.0868.0224518.1723.078251.238.0557987.0657.1347737.1063.2197737.1131 3.08302.2776 5.41069.4191 7.5277.461 1.87036.0419 3.56602 0 5.17942-.131 1.6942-.1342 3.3791-.3704 5.0459-.7073.8581-.1729 1.7316-.3772 2.5692-.6025.4368-.1153.8838-.241 1.336-.3773 2.0697-.55028 3.998-1.55126 5.6522-2.93404.1438-.12574.2877-.25673.4316-.39295.1129-.11238.2192-.23134.3186-.35629l.0873-.09955c.0123-.01532.0261-.02936.0411-.04191a.382271.382271 0 0 1 0 .07859c-.0069.10185-.0189.20328-.0359.30389-.0025.04887-.0025.09783 0 .1467.0044.05755.0044.11536 0 .1729v.09955c0 .09431-.0257.18862-.036.28293 0 .07859 0 .15718-.036.23578-.0257.17814-.0514.32484-.0822.46106-.0756.39009-.2201.76292-.4265 1.10029-.2672.40343-.6474.83305-.9043.88025-.2342.0402-.472.0542-.7091.0419-.2878 0-.5909-.0734-.9301-.1362-.2004-.03148-.4162-.07863-.632-.12579l-.1798-.02619c-.37-.12051-.5139-.15195-.5858-.09955-.1046.08227-.1869.19042-.2391.31423-.0521.1238-.0724.2591-.0589.3931 0 .3196.2209.5711.6525.7545.3041.1251.628.1926.9558.1991.5791-.0034 1.1436-.1861 1.6186-.524.483 0 1.0893 0 1.9114-.089 1.4783-.1348 2.907-.6114 4.1775-1.39374.92-.56182 1.7617-1.24736 2.5024-2.03813-.0501.26418-.0759.53255-.0771.80163-.0216.36642.0296.73351.1506 1.07925.1209.34574.3092.66298.5534.93269.3175.2769.686.4863 1.084.6158.3979.1296.8173.1767 1.2334.1387 1.2769-.0029 2.5469-.1917 3.7715-.5606.3509-.1051.6943-.2347 1.0277-.3878-.0536.1416-.0777.293-.0706.4446.0071.1516.0452.2999.1117.4357.1112.1953.2698.3582.4606.4729.1908.1147.4073.1774.6288.182h.1027c.83-.0671 1.6211-.3865 2.2712-.9169-.0103.2112.0535.4192.1798.5868.1769.1964.3999.3437.648.428.2481.0844.5131.103.7702.054 1.7573-.2253 3.6739-1.1736 5.2154-1.93331.3854-.18862.7348-.36152 1.0277-.52394-.2226.36382-.3954.75691-.5138 1.16835-.0571.145-.0743.303-.0498.4572.0244.1541.0896.2986.1885.4178.1515.112.3257.1881.5097.2225.1841.0345.3733.0265.554-.0234.5454-.0961 1.0782-.2561 1.5877-.4768 1.0474-.4356 2.0564-.9614 3.0162-1.5718-.6628.8383-2.081 2.5306-2.4561 2.8869-.4573.3144-.8119.524-1.0277.6707-2.0532 1.2781-3.924 2.8384-5.5597 4.6369-.5657.6422-1.0381 1.3639-1.4028 2.1429-.3003.6346-.4616 1.3283-.4727 2.0329 0 .9693.4779 1.1841.8838 1.1946h.0411c.4085-.014.8067-.1349 1.1561-.3511.4922-.2871.9449-.6395 1.3463-1.0478.7156-.7072 1.3547-1.4906 1.9063-2.3368l3.7459-5.6272c.3597-.5239.6063-.8907.7348-1.0479.9609-.5239 2.8209-.9535 4.1877-1.2574l1.0277-.2358c1.009-.2619 1.9995-.5927 2.9648-.9902 1.1054-.42122 2.1441-1.00553 3.0831-1.7343.3031-.24372.5851-.51368.8427-.80687.007.06442.007.12944 0 .19386v.07859c0 .13622-.0411.29864-.0617.45583-.0338.3029-.0835.60373-.149.90118-.0672.3729-.205.72885-.4059 1.04791-.2364.351-.6012.7754-.8581.8173-.2238.0404-.4514.0544-.6783.0419-.2826-.0262-.5755-.0681-.8889-.1257-.1953-.0314-.3906-.0734-.6064-.1205l-.1336-.0419c-.3545-.1153-.4881-.1415-.5703-.0891-.1002.0762-.1793.1775-.2298.2941-.0504.1166-.0704.2445-.058.3713 0 .3039.2107.524.6269.7126.2919.1156.6015.1777.9146.1834.554-.012 1.0914-.1947 1.5415-.524.6091.0034 1.2179-.0246 1.8242-.0838l.411-.0419c1.0637-.1205 3.8898-.4454 7.7076-.7126 4.7992-.3353 9.3107-.4558 13.4111-.351h3.0984c.0424.0001.0843-.0087.1232-.0258.0389-.0171.074-.0422.1029-.0738.059-.0616.092-.1444.092-.2305 0-.0862-.033-.1689-.092-.2306l-.0514-.01568Zm-50.9366-.96405c.8825-.44939 1.8357-.73671 2.8159-.84879-.5028.89473-1.2073 1.65446-2.0554 2.21632-.2033.1407-.4368.2299-.6808.2599-.244.0301-.4915.0003-.7219-.087-.1037-.0359-.1913-.1085-.247-.2047-.0556-.0961-.0755-.2094-.0562-.3193.036-.31959.3854-.69683.9454-1.01643ZM25.9592 10.6821c-.2341.1358-.5018.1995-.7707.1833-.5755 0-.5755-.2514-.5755-.3405-.004-.0172-.004-.0352 0-.0524.0565 0 .3391.0419.8272.1257l.519.0839Zm24.0732 11.5581c-.0531-.0061-.1039-.0262-.1471-.0583-.0433-.0322-.0775-.0753-.0995-.125-.0728-.1238-.1135-.2645-.1182-.4087.0375-.5993.2136-1.181.5138-1.6976.7788-1.4085 1.7826-2.6746 2.97-3.7462 1.0951-1.0291 2.3019-1.9274 3.5969-2.6773-.0421.0932-.0919.1826-.149.2672l-3.2218 5.1556c-.4364.6975-.9316 1.3549-1.4798 1.9648-.7811.8802-1.408 1.3255-1.8653 1.3255Zm18.3491-10.6884c-.2206.1149-.4668.1691-.7142.1572-.5447 0-.5447-.2305-.5447-.3091v-.0419c0-.0105.3237.0419.7862.1152l.4727.0786Z"/>
</svg>
