<svg width="28" height="28" viewBox="0 0 28 28" fill="none" xmlns="http://www.w3.org/2000/svg">
<path d="M14 2.92578C13.3299 2.92578 12.6601 3.14374 12.1064 3.57975C12.1061 3.57975 12.1057 3.57975 12.1053 3.57975L5.16797 9.04736C4.11589 9.87649 3.5 11.1434 3.5 12.4836V23.0348C3.5 24.1519 4.42461 25.0765 5.54167 25.0765H22.4583C23.5754 25.0765 24.5 24.1519 24.5 23.0348V12.4836C24.5 11.1434 23.8841 9.87649 22.832 9.04736C22.832 9.04698 22.832 9.0466 22.832 9.04622L15.8936 3.57975C15.3399 3.14374 14.6701 2.92578 14 2.92578ZM14 4.67122C14.2857 4.67122 14.5715 4.76617 14.8112 4.95492L21.7497 10.4214C22.3823 10.9199 22.75 11.6782 22.75 12.4836V23.0348C22.75 23.2069 22.6304 23.3265 22.4583 23.3265H5.54167C5.36956 23.3265 5.25 23.2069 5.25 23.0348V12.4836C5.25 11.6782 5.61774 10.9199 6.25033 10.4214L13.1888 4.95492C13.4285 4.76617 13.7143 4.67122 14 4.67122ZM14 10.5057C11.6096 10.5057 9.21877 11.4144 7.3999 13.2332C7.31858 13.3146 7.25408 13.4111 7.21007 13.5173C7.16606 13.6236 7.14341 13.7375 7.14341 13.8525C7.14341 13.9675 7.16606 14.0813 7.21007 14.1876C7.25408 14.2938 7.31858 14.3904 7.3999 14.4717C7.48122 14.553 7.57776 14.6175 7.684 14.6615C7.79025 14.7055 7.90412 14.7282 8.01912 14.7282C8.13412 14.7282 8.248 14.7055 8.35424 14.6615C8.46049 14.6175 8.55703 14.553 8.63835 14.4717C11.6074 11.5026 16.3926 11.5026 19.3617 14.4717C19.443 14.553 19.5395 14.6175 19.6458 14.6615C19.752 14.7055 19.8659 14.7282 19.9809 14.7282C20.0959 14.7282 20.2097 14.7055 20.316 14.6615C20.4222 14.6175 20.5188 14.553 20.6001 14.4717C20.6814 14.3904 20.7459 14.2938 20.7899 14.1876C20.8339 14.0813 20.8566 13.9675 20.8566 13.8525C20.8566 13.7375 20.8339 13.6236 20.7899 13.5173C20.7459 13.4111 20.6814 13.3146 20.6001 13.2332C18.7812 11.4144 16.3904 10.5057 14 10.5057ZM14 14.589C12.6545 14.589 11.3096 15.0999 10.2881 16.1214C10.2041 16.202 10.1371 16.2986 10.0909 16.4055C10.0447 16.5123 10.0203 16.6273 10.0191 16.7438C10.0179 16.8602 10.04 16.9756 10.084 17.0834C10.128 17.1912 10.193 17.2891 10.2754 17.3714C10.3577 17.4538 10.4556 17.5188 10.5634 17.5628C10.6712 17.6068 10.7866 17.6289 10.903 17.6277C11.0195 17.6265 11.1345 17.6021 11.2413 17.5559C11.3482 17.5097 11.4448 17.4427 11.5254 17.3587C12.8996 15.9845 15.1016 15.9845 16.4757 17.3587C16.5564 17.4427 16.6529 17.5097 16.7598 17.5559C16.8667 17.6021 16.9817 17.6265 17.0981 17.6277C17.2145 17.6289 17.33 17.6068 17.4378 17.5628C17.5455 17.5188 17.6435 17.4538 17.7258 17.3714C17.8081 17.2891 17.8732 17.1912 17.9172 17.0834C17.9612 16.9756 17.9832 16.8602 17.982 16.7438C17.9809 16.6273 17.9565 16.5123 17.9103 16.4055C17.8641 16.2986 17.797 16.202 17.7131 16.1214C16.6916 15.0999 15.3455 14.589 14 14.589ZM14 18.6667C13.6906 18.6667 13.3938 18.7896 13.175 19.0084C12.9562 19.2272 12.8333 19.5239 12.8333 19.8333C12.8333 20.1428 12.9562 20.4395 13.175 20.6583C13.3938 20.8771 13.6906 21 14 21C14.3094 21 14.6062 20.8771 14.825 20.6583C15.0437 20.4395 15.1667 20.1428 15.1667 19.8333C15.1667 19.5239 15.0437 19.2272 14.825 19.0084C14.6062 18.7896 14.3094 18.6667 14 18.6667Z" fill="#222222"/>
</svg>
